<svg width="54" height="52" viewBox="0 0 54 52" fill="none" xmlns="http://www.w3.org/2000/svg">
<rect width="54" height="52" fill="#83C3E0" fill-opacity="0.03"/>
<path d="M11.25 21.6668H15.75C20.25 21.6668 22.5 19.5002 22.5 15.1668V10.8335C22.5 6.50016 20.25 4.3335 15.75 4.3335H11.25C6.75 4.3335 4.5 6.50016 4.5 10.8335V15.1668C4.5 19.5002 6.75 21.6668 11.25 21.6668Z" stroke="#4E2E93" stroke-width="1.5" stroke-miterlimit="10" stroke-linecap="round" stroke-linejoin="round"/>
<path d="M38.25 21.6668H42.75C47.25 21.6668 49.5 19.5002 49.5 15.1668V10.8335C49.5 6.50016 47.25 4.3335 42.75 4.3335H38.25C33.75 4.3335 31.5 6.50016 31.5 10.8335V15.1668C31.5 19.5002 33.75 21.6668 38.25 21.6668Z" stroke="#4E2E93" stroke-width="1.5" stroke-miterlimit="10" stroke-linecap="round" stroke-linejoin="round"/>
<path d="M38.75 47.3333H43.25C47.75 47.3333 50 45.1667 50 40.8333V36.5C50 32.1667 47.75 30 43.25 30H38.75C34.25 30 32 32.1667 32 36.5V40.8333C32 45.1667 34.25 47.3333 38.75 47.3333Z" stroke="#4E2E93" stroke-width="1.5" stroke-miterlimit="10" stroke-linecap="round" stroke-linejoin="round"/>
<path d="M11.25 47.6668H15.75C20.25 47.6668 22.5 45.5002 22.5 41.1668V36.8335C22.5 32.5002 20.25 30.3335 15.75 30.3335H11.25C6.75 30.3335 4.5 32.5002 4.5 36.8335V41.1668C4.5 45.5002 6.75 47.6668 11.25 47.6668Z" stroke="#4E2E93" stroke-width="1.5" stroke-miterlimit="10" stroke-linecap="round" stroke-linejoin="round"/>
</svg>
